<svg width="150" height="50" viewBox="0 0 150 50" fill="none" xmlns="http://www.w3.org/2000/svg">
    <!-- Paw prints - the iconic part of the logo -->
    <path d="M25 10C27.7614 10 30 12.2386 30 15C30 17.7614 27.7614 20 25 20C22.2386 20 20 17.7614 20 15C20 12.2386 22.2386 10 25 10Z" fill="#FF6B6B"/>
    <path d="M35 25C37.7614 25 40 27.2386 40 30C40 32.7614 37.7614 35 35 35C32.2386 35 30 32.7614 30 30C30 27.2386 32.2386 25 35 25Z" fill="#FF6B6B"/>
    <path d="M15 25C17.7614 25 20 27.2386 20 30C20 32.7614 17.7614 35 15 35C12.2386 35 10 32.7614 10 30C10 27.2386 12.2386 25 15 25Z" fill="#FF6B6B"/>
    <path d="M20 40C22.7614 40 25 42.2386 25 45C25 47.7614 22.7614 50 20 50C17.2386 50 15 47.7614 15 45C15 42.2386 17.2386 40 20 40Z" fill="#FF6B6B"/>
    <path d="M30 40C32.7614 40 35 42.2386 35 45C35 47.7614 32.7614 50 30 50C27.2386 50 25 47.7614 25 45C25 42.2386 27.2386 40 30 40Z" fill="#FF6B6B"/>
    
    <!-- Brand name text -->
    <path d="M56 27.4V21.8H59.192C60.088 21.8 60.824 22.024 61.4 22.472C61.976 22.92 62.264 23.544 62.264 24.344C62.264 25.144 61.976 25.768 61.4 26.216C60.824 26.664 60.088 26.888 59.192 26.888H56.728V27.4H56ZM56.728 26.216H59.192C59.848 26.216 60.36 26.048 60.728 25.712C61.096 25.376 61.28 24.92 61.28 24.344C61.28 23.768 61.096 23.312 60.728 22.976C60.36 22.64 59.848 22.472 59.192 22.472H56.728V26.216Z" fill="#4D4D4D"/>
    <path d="M67.6387 27.472C66.9027 27.472 66.2947 27.248 65.8147 26.8C65.3347 26.352 65.0947 25.768 65.0947 25.048C65.0947 24.328 65.3347 23.744 65.8147 23.296C66.2947 22.848 66.9027 22.624 67.6387 22.624C68.3747 22.624 68.9827 22.848 69.4627 23.296C69.9427 23.744 70.1827 24.328 70.1827 25.048C70.1827 25.768 69.9427 26.352 69.4627 26.8C68.9827 27.248 68.3747 27.472 67.6387 27.472ZM67.6387 26.8C68.1347 26.8 68.5427 26.648 68.8627 26.344C69.1827 26.04 69.3427 25.608 69.3427 25.048C69.3427 24.488 69.1827 24.056 68.8627 23.752C68.5427 23.448 68.1347 23.296 67.6387 23.296C67.1427 23.296 66.7347 23.448 66.4147 23.752C66.0947 24.056 65.9347 24.488 65.9347 25.048C65.9347 25.608 66.0947 26.04 66.4147 26.344C66.7347 26.648 67.1427 26.8 67.6387 26.8Z" fill="#4D4D4D"/>
    <path d="M75.0844 22.696H75.7964L78.1244 27.4H77.2604L76.7404 26.12H74.1404L73.6204 27.4H72.7564L75.0844 22.696ZM76.4684 25.448L75.4404 23.104L74.4124 25.448H76.4684Z" fill="#4D4D4D"/>
    <path d="M82.6359 27.472C81.9159 27.472 81.3319 27.256 80.8839 26.824C80.4359 26.392 80.2119 25.816 80.2119 25.096C80.2119 24.376 80.4319 23.8 80.8719 23.368C81.3119 22.936 81.8879 22.72 82.5999 22.72C83.3199 22.72 83.8959 22.936 84.3279 23.368C84.7599 23.8 84.9759 24.376 84.9759 25.096C84.9759 25.432 84.9199 25.74 84.8079 26.02C84.7039 26.3 84.5559 26.54 84.3639 26.74C84.1719 26.94 83.9439 27.096 83.6799 27.208C83.4159 27.32 83.0879 27.392 82.6959 27.424L84.8079 29.248H83.7439L81.8959 27.472H82.6359ZM82.6119 26.8C83.1079 26.8 83.5079 26.648 83.8119 26.344C84.1159 26.04 84.2679 25.616 84.2679 25.072C84.2679 24.528 84.1159 24.108 83.8119 23.812C83.5079 23.516 83.1079 23.368 82.6119 23.368C82.1159 23.368 81.7159 23.52 81.4119 23.824C81.1079 24.128 80.9559 24.544 80.9559 25.072C80.9559 25.616 81.1079 26.04 81.4119 26.344C81.7159 26.648 82.1159 26.8 82.6119 26.8Z" fill="#4D4D4D"/>
    <path d="M92.6395 22.696H93.3995V27.4H92.5995L89.4075 23.752V27.4H88.6475V22.696H89.4675L92.6395 26.344V22.696Z" fill="#4D4D4D"/>
    <path d="M99.5092 27.472C98.7732 27.472 98.1652 27.248 97.6852 26.8C97.2052 26.352 96.9652 25.768 96.9652 25.048C96.9652 24.328 97.2052 23.744 97.6852 23.296C98.1652 22.848 98.7732 22.624 99.5092 22.624C100.245 22.624 100.853 22.848 101.333 23.296C101.813 23.744 102.053 24.328 102.053 25.048C102.053 25.768 101.813 26.352 101.333 26.8C100.853 27.248 100.245 27.472 99.5092 27.472ZM99.5092 26.8C100.005 26.8 100.413 26.648 100.733 26.344C101.053 26.04 101.213 25.608 101.213 25.048C101.213 24.488 101.053 24.056 100.733 23.752C100.413 23.448 100.005 23.296 99.5092 23.296C99.0132 23.296 98.6052 23.448 98.2852 23.752C97.9652 24.056 97.8052 24.488 97.8052 25.048C97.8052 25.608 97.9652 26.04 98.2852 26.344C98.6052 26.648 99.0132 26.8 99.5092 26.8Z" fill="#4D4D4D"/>
    <path d="M103.414 22.696H104.174V26.728H107.03V27.4H103.414V22.696Z" fill="#4D4D4D"/>
    <path d="M112.047 27.472C111.311 27.472 110.703 27.248 110.223 26.8C109.743 26.352 109.503 25.768 109.503 25.048C109.503 24.328 109.743 23.744 110.223 23.296C110.703 22.848 111.311 22.624 112.047 22.624C112.783 22.624 113.391 22.848 113.871 23.296C114.351 23.744 114.591 24.328 114.591 25.048C114.591 25.768 114.351 26.352 113.871 26.8C113.391 27.248 112.783 27.472 112.047 27.472ZM112.047 26.8C112.543 26.8 112.951 26.648 113.271 26.344C113.591 26.04 113.751 25.608 113.751 25.048C113.751 24.488 113.591 24.056 113.271 23.752C112.951 23.448 112.543 23.296 112.047 23.296C111.551 23.296 111.143 23.448 110.823 23.752C110.503 24.056 110.343 24.488 110.343 25.048C110.343 25.608 110.503 26.04 110.823 26.344C111.143 26.648 111.551 26.8 112.047 26.8Z" fill="#4D4D4D"/>
    <path d="M118.517 27.472C117.797 27.472 117.213 27.256 116.765 26.824C116.317 26.392 116.093 25.816 116.093 25.096C116.093 24.376 116.313 23.8 116.753 23.368C117.193 22.936 117.769 22.72 118.481 22.72C119.201 22.72 119.777 22.936 120.209 23.368C120.641 23.8 120.857 24.376 120.857 25.096C120.857 25.432 120.801 25.74 120.689 26.02C120.585 26.3 120.437 26.54 120.245 26.74C120.053 26.94 119.825 27.096 119.561 27.208C119.297 27.32 118.969 27.392 118.577 27.424L120.689 29.248H119.625L117.777 27.472H118.517ZM118.493 26.8C118.989 26.8 119.389 26.648 119.693 26.344C119.997 26.04 120.149 25.616 120.149 25.072C120.149 24.528 119.997 24.108 119.693 23.812C119.389 23.516 118.989 23.368 118.493 23.368C117.997 23.368 117.597 23.52 117.293 23.824C116.989 24.128 116.837 24.544 116.837 25.072C116.837 25.616 116.989 26.04 117.293 26.344C117.597 26.648 117.997 26.8 118.493 26.8Z" fill="#4D4D4D"/>
    <path d="M123.838 27.4V22.696H124.598V25.24L127.31 22.696H128.254L125.878 24.92L128.374 27.4H127.406L125.254 25.24L124.598 25.864V27.4H123.838Z" fill="#4D4D4D"/>
    <path d="M133.031 27.472C132.295 27.472 131.687 27.248 131.207 26.8C130.727 26.352 130.487 25.768 130.487 25.048C130.487 24.328 130.727 23.744 131.207 23.296C131.687 22.848 132.295 22.624 133.031 22.624C133.767 22.624 134.375 22.848 134.855 23.296C135.335 23.744 135.575 24.328 135.575 25.048C135.575 25.768 135.335 26.352 134.855 26.8C134.375 27.248 133.767 27.472 133.031 27.472ZM133.031 26.8C133.527 26.8 133.935 26.648 134.255 26.344C134.575 26.04 134.735 25.608 134.735 25.048C134.735 24.488 134.575 24.056 134.255 23.752C133.935 23.448 133.527 23.296 133.031 23.296C132.535 23.296 132.127 23.448 131.807 23.752C131.487 24.056 131.327 24.488 131.327 25.048C131.327 25.608 131.487 26.04 131.807 26.344C132.127 26.648 132.535 26.8 133.031 26.8Z" fill="#4D4D4D"/>
    <path d="M140.264 27.4V23.368H138.632V22.696H142.64V23.368H141.024V27.4H140.264Z" fill="#4D4D4D"/>
</svg>